# xmcd CD database file
#
# Track frame offsets:
#	150
#	20438
#	40581
#	62115
#	77465
#	95831
#	111714
#	131328
#	148907
#	167280
#
# Disc length: 2453 seconds
#
# Revision: 0
# Processed by: cddbd v1.4PL0 Copyright (c) Steve Scherf et al.
# Submitted via: CDex 1.51
#
DISCID=8209930a
DTITLE=Perry Martin - This Is Where I Came In
DYEAR=1900
DGENRE=Country
TTITLE0=Truck Driving Man
TTITLE1=He Can't Say, "No!"
TTITLE2=Cinderella
TTITLE3=That's All She Wrote
TTITLE4=This Must Be Love
TTITLE5=I Don't Wanna Send You Home
TTITLE6=Without You
TTITLE7=The Next Fool In Line
TTITLE8=You're Not Alone
TTITLE9=This Is Where I Came In
EXTD=
EXTT0=
EXTT1=
EXTT2=
EXTT3=
EXTT4=
EXTT5=
EXTT6=
EXTT7=
EXTT8=
EXTT9=
PLAYORDER=
